ffmpeg version 3.3.9 Copyright (c) 2000-2018 the FFmpeg developers
  built with gcc 6.3.0 (Debian 6.3.0-18+deb9u1) 20170516
  configuration: --disable-decoder=amrnb --disable-decoder=libopenjpeg --disable-mips32r2 --disable-mips32r6 --disable-mips64r6 --disable-mipsdsp --disable-mipsdspr2 --disable-mipsfpu --disable-msa --disable-libopencv --disable-podpages --disable-stripping --enable-avfilter --enable-avresample --enable-gcrypt --enable-gnutls --enable-gpl --enable-libass --enable-libbluray --enable-libbs2b --enable-libcaca --enable-libcdio --enable-libfdk-aac --enable-libfontconfig --enable-libfreetype --enable-libfribidi --enable-libgme --enable-libgsm --enable-libilbc --enable-libkvazaar --enable-libmp3lame --enable-libopencore-amrnb --enable-libopencore-amrwb --enable-libopenh264 --enable-libopenjpeg --enable-libopenmpt --enable-libopus --enable-libpulse --enable-librubberband --enable-libshine --enable-libsnappy --enable-libsoxr --enable-libspeex --enable-libtesseract --enable-libtheora --enable-libvidstab --enable-libvo-amrwbenc --enable-libvorbis --enable-libvpx --enable-libx265 --enable-libxvid --enable-libzvbi --enable-nonfree --enable-opengl --enable-openssl --enable-postproc --enable-pthreads --enable-shared --enable-version3 --incdir=/usr/include/x86_64-linux-gnu --libdir=/usr/lib/x86_64-linux-gnu --prefix=/usr --toolchain=hardened --enable-frei0r --enable-chromaprint --enable-libx264 --enable-libiec61883 --enable-libdc1394 --enable-vaapi --disable-opencl --enable-libmfx --disable-altivec --shlibdir=/usr/lib/x86_64-linux-gnu
  libavutil      55. 58.100 / 55. 58.100
  libavcodec     57. 89.100 / 57. 89.100
  libavformat    57. 71.100 / 57. 71.100
  libavdevice    57.  6.100 / 57.  6.100
  libavfilter     6. 82.100 /  6. 82.100
  libavresample   3.  5.  0 /  3.  5.  0
  libswscale      4.  6.100 /  4.  6.100
  libswresample   2.  7.100 /  2.  7.100
  libpostproc    54.  5.100 / 54.  5.100
Input #0, matroska,webm, from 'Pokemon.-.Staffel.01.-.IL46.-.Folge.046.-.Angreifer.aus.der.Urzeit.mkv':
  Metadata:
    encoder         : libebml v0.7.7 + libmatroska v0.8.1
    creation_time   : 2008-12-04T23:13:36.000000Z
  Duration: 00:21:41.50, start: 0.000000, bitrate: 1227 kb/s
    Chapter #0:0: start 0.000000, end 60.967000
    Metadata:
      title           : Chapter 1
    Chapter #0:1: start 60.967000, end 562.033000
    Metadata:
      title           : Chapter 2
    Chapter #0:2: start 562.033000, end 1236.600000
    Metadata:
      title           : Chapter 3
    Chapter #0:3: start 1236.600000, end 1301.504000
    Metadata:
      title           : Chapter 4
    Stream #0:0(jpn): Video: h264 (High), yuv420p(progressive), 688x480 [SAR 47:51 DAR 2021:1530], SAR 199:216 DAR 8557:6480, 29.97 fps, 29.97 tbr, 1k tbn, 59.94 tbc (default)
    Metadata:
      title           : NTSC
    Stream #0:1(ger): Audio: aac (HE-AACv2), 48000 Hz, stereo, fltp (default)
    Metadata:
      title           : 2.0
    Stream #0:2(eng): Audio: aac (HE-AAC), 48000 Hz, stereo, fltp
    Metadata:
      title           : English
At least one output file must be specified
